/* XPM */
static char *icon[] = {
/* columns rows colors chars-per-pixel */
"32 32 2 1",
"  c #76C7E9",
". c None",
/* pixels */
"................................",
"................................",
"................................",
"................................",
"................................",
"...............   ..............",
"............         ...........",
"..........            ..........",
".........              .........",
"........                ........",
".......       .....      .......",
".......     ........      ......",
"......     ..........     ......",
"......     ...........    ......",
"......     ...........    ......",
"......    ............     .....",
"......    ............     .....",
"......    ............     .....",
"......    ............     .....",
"......    ............     .....",
"......    ............     .....",
"......    ............     .....",
"......    ............     .....",
"......    ............     .....",
"......    ............     .....",
"......    ............     .....",
"......    .............   ......",
"................................",
"................................",
"................................",
"................................",
"................................"
};
